<?xml version="1.0" encoding="UTF-8"?><svg id="a" xmlns="http://www.w3.org/2000/svg" width="73.35" height="74.75" xmlns:xlink="http://www.w3.org/1999/xlink" viewBox="0 0 73.35 74.75"><defs><style>.d{fill:#fff;}.e{fill:url(#c);fill-rule:evenodd;}.f{fill:url(#b);}</style><linearGradient id="b" x1="1.84" y1="7.76" x2="35.8" y2="27.36" gradientTransform="translate(0 75.33) scale(1 -1)" gradientUnits="userSpaceOnUse"><stop offset="0" stop-color="#38ffb7"/><stop offset="1" stop-color="#37de84"/></linearGradient><linearGradient id="c" x1="35.71" y1="38.18" x2="73.35" y2="38.18" gradientTransform="translate(0 75.33) scale(1 -1)" gradientUnits="userSpaceOnUse"><stop offset="0" stop-color="#38ffb7"/><stop offset="1" stop-color="#37de84"/></linearGradient></defs><path class="f" d="M25.69,74.75c1.81,0,3.49-.97,4.4-2.54l6.87-11.9c.91-1.57.91-3.51,0-5.08l-6.87-11.9c-.91-1.57-2.58-2.54-4.4-2.54h-13.75c-1.81,0-3.49.97-4.4,2.54L.68,55.23c-.91,1.57-.91,3.51,0,5.08l6.87,11.9c.91,1.57,2.58,2.54,4.4,2.54h13.75Z"/><path class="d" d="M25.95,33.96c1.81,0,3.49-.97,4.4-2.54l6.87-11.9c.91-1.57.91-3.51,0-5.08l-6.87-11.9c-.91-1.57-2.58-2.54-4.4-2.54h-13.75c-1.81,0-3.49.97-4.4,2.54L.94,14.44c-.91,1.57-.91,3.51,0,5.08l6.87,11.9c.91,1.57,2.58,2.54,4.4,2.54h13.75Z"/><path class="e" d="M65.8,51.59c-.91,1.57-2.58,2.54-4.4,2.54h-13.75c-1.81,0-3.49-.97-4.4-2.54l-6.87-11.9c-.91-1.57-.91-3.51,0-5.08l6.87-11.9c.91-1.57,2.58-2.54,4.4-2.54h13.75c1.81,0,3.49.97,4.4,2.54l6.87,11.9c.91,1.57.91,3.51,0,5.08l-6.87,11.9ZM61.77,46.79c-.47.82-1.35,1.32-2.29,1.32h-9.89c-.95,0-1.82-.5-2.29-1.32l-4.94-8.56c-.47-.82-.47-1.83,0-2.65l4.94-8.56c.47-.82,1.35-1.32,2.29-1.32h9.89c.95,0,1.82.5,2.29,1.32l4.94,8.56c.47.82.47,1.83,0,2.65l-4.94,8.56Z"/></svg>